<?xml version="1.0" standalone="no"?>
<!DOCTYPE svg PUBLIC "-//W3C//DTD SVG 20010904//EN"
 "http://www.w3.org/TR/2001/REC-SVG-20010904/DTD/svg10.dtd">
<svg version="1.0" xmlns="http://www.w3.org/2000/svg"
 width="256.000000pt" height="256.000000pt" viewBox="0 0 256.000000 256.000000"
 preserveAspectRatio="xMidYMid meet">
<metadata>
Created by potrace 1.10, written by Peter Selinger 2001-2011
</metadata>
<g transform="translate(0.000000,256.000000) scale(0.100000,-0.100000)"
fill="#000000" stroke="none">
<path d="M927 2290 c-77 -83 -101 -147 -101 -270 -1 -88 2 -100 33 -162 18
-37 41 -74 51 -83 18 -16 17 -19 -11 -63 -16 -25 -29 -51 -29 -57 0 -6 -9 -18
-20 -28 -14 -12 -20 -29 -20 -60 0 -34 -7 -52 -33 -83 -63 -76 -61 -68 -31
-116 16 -24 41 -60 57 -80 l29 -38 -26 -10 c-59 -22 -17 -70 155 -177 63 -40
145 -99 182 -134 69 -63 134 -146 123 -157 -4 -3 -25 12 -49 35 -102 98 -139
127 -251 198 -66 42 -137 95 -158 118 l-38 42 6 -40 c10 -66 13 -73 33 -68 10
3 37 -8 62 -25 24 -17 85 -56 134 -88 86 -56 205 -161 205 -183 0 -19 -41 -23
-60 -6 -11 10 -18 21 -15 25 7 11 -53 63 -137 119 -42 28 -80 56 -83 61 -4 6
-10 8 -15 5 -5 -3 -30 10 -55 30 -26 19 -51 35 -56 35 -18 0 -36 57 -42 129
-6 67 -4 74 13 78 24 6 26 26 4 44 -16 13 -56 71 -81 117 -11 21 -9 27 24 62
54 59 60 71 65 123 3 31 12 55 26 67 11 11 24 30 27 42 4 13 14 30 21 39 13
14 10 23 -21 74 -19 33 -35 63 -35 68 0 4 -12 33 -26 64 -36 75 -43 139 -18
147 12 4 25 25 35 56 8 28 14 50 13 50 -17 0 -170 -106 -235 -163 -240 -210
-364 -463 -376 -762 -12 -292 78 -538 269 -740 172 -181 397 -300 636 -335
119 -18 345 -8 445 19 424 113 714 412 794 821 17 91 19 282 4 368 -36 190
-135 389 -267 531 -59 64 -152 146 -159 140 -2 -2 1 -25 5 -51 8 -38 21 -58
80 -119 123 -125 202 -267 253 -447 30 -110 29 -351 -2 -466 -50 -185 -120
-306 -256 -441 -134 -133 -314 -230 -503 -271 -93 -20 -316 -23 -412 -5 -298
56 -566 244 -700 494 -83 154 -127 344 -116 504 14 198 95 414 211 558 31 39
63 79 71 89 22 32 25 13 5 -30 -10 -21 -27 -64 -36 -94 -9 -30 -34 -100 -55
-155 -73 -189 -84 -243 -85 -410 0 -169 12 -230 71 -354 117 -248 342 -419
634 -482 88 -18 123 -21 229 -16 140 6 222 24 376 83 97 38 103 42 213 148
l112 109 37 -11 c20 -6 39 -9 42 -7 8 9 -14 25 -46 34 -28 8 -36 4 -97 -51
-37 -33 -68 -59 -69 -57 -2 2 -8 27 -15 54 -7 28 -31 87 -53 133 -31 63 -38
86 -29 96 8 11 2 24 -24 59 -32 42 -34 47 -23 78 7 19 45 66 85 105 51 49 71
75 66 87 -9 25 55 146 82 153 17 4 24 15 29 45 4 21 4 42 1 47 -3 5 -41 17
-86 27 -79 18 -80 19 -80 50 0 17 -7 52 -16 77 l-15 46 31 43 c48 67 64 136
56 249 -5 84 -27 205 -39 216 -8 9 -124 -75 -164 -119 -23 -25 -56 -71 -74
-102 -24 -42 -36 -55 -48 -50 -76 31 -138 47 -208 52 l-81 6 -40 81 c-54 109
-168 242 -248 289 -7 4 -35 -18 -67 -53z m129 -107 c19 -41 33 -77 31 -79 -5
-6 -55 69 -69 104 l-11 27 -19 -44 c-23 -50 -47 -173 -48 -239 0 -60 46 -144
98 -178 21 -14 26 -14 46 -1 12 9 37 18 55 20 35 6 54 17 29 17 -19 0 -34 59
-44 170 -6 75 -34 181 -60 233 -28 53 5 26 67 -55 71 -95 104 -159 121 -238
10 -47 18 -60 55 -87 50 -38 54 -33 13 21 -61 80 -32 83 88 9 69 -42 118 -96
142 -155 8 -22 9 -22 9 6 1 21 5 27 16 22 21 -7 19 3 -8 45 -34 56 -126 123
-160 118 -6 -1 -32 8 -57 19 l-45 22 55 -6 c220 -25 390 -154 429 -325 5 -24
12 -59 15 -76 l6 -33 -62 0 -61 0 23 25 c13 14 30 25 37 25 23 0 24 24 5 88
-19 60 -84 162 -103 162 -6 0 1 -15 14 -32 26 -35 57 -115 57 -149 0 -11 5
-17 10 -14 20 13 9 -17 -22 -60 -28 -37 -40 -44 -78 -49 -25 -4 -60 -2 -79 3
-19 6 -37 8 -42 6 -15 -10 -102 54 -153 111 -27 31 -64 66 -81 76 l-30 20 32
-4 c50 -7 28 9 -32 23 -43 10 -64 10 -95 0 -22 -7 -38 -16 -35 -20 2 -5 -2
-14 -10 -21 -8 -7 -15 -19 -15 -26 0 -10 6 -11 26 -4 50 19 117 12 165 -18 46
-30 78 -62 61 -62 -5 0 -25 6 -43 14 -50 21 -234 57 -294 59 -52 1 -53 1 -44
27 7 22 7 23 -4 7 -29 -45 -36 -52 -42 -45 -8 8 35 88 46 88 4 0 10 -4 13 -9
12 -18 45 -19 61 -1 16 17 16 18 -2 14 -26 -7 -84 45 -118 107 -28 50 -30 61
-30 159 0 92 3 112 26 160 14 30 38 70 54 88 34 41 43 35 91 -65z m-30 -52
c25 -55 23 -64 -7 -28 l-19 22 6 -30 c3 -16 17 -54 30 -82 24 -56 23 -64 -9
-35 -20 17 -20 16 -13 -12 8 -34 43 -86 57 -86 6 0 7 5 3 12 -4 7 -9 39 -10
73 -2 33 -5 69 -6 80 -2 11 2 21 7 23 12 4 20 -30 35 -152 10 -78 9 -90 -6
-107 -12 -13 -21 -16 -34 -9 -24 13 -32 58 -12 62 11 2 3 12 -22 32 -20 15
-39 26 -41 25 -2 -2 5 -22 16 -43 23 -48 23 -52 3 -35 -34 28 -47 71 -41 133
9 95 29 217 34 212 3 -3 16 -28 29 -55z m815 -58 c8 -27 14 -86 14 -133 -1
-71 -5 -95 -29 -147 -30 -66 -36 -72 -55 -50 -8 10 -7 32 3 83 18 90 25 164
16 164 -4 0 -18 -43 -31 -95 -12 -52 -25 -95 -28 -95 -3 0 -24 18 -45 40 l-40
40 18 55 c16 52 36 81 36 53 0 -7 11 3 23 23 31 51 80 107 93 108 6 1 18 -20
25 -46z m-1126 -13 c-8 -36 20 -151 40 -166 8 -6 15 -16 15 -21 0 -5 20 -38
44 -72 l44 -64 -39 -51 c-21 -28 -39 -59 -40 -68 -1 -10 -3 -22 -4 -28 -1 -5
-3 -16 -4 -24 0 -8 -21 -41 -46 -74 -25 -33 -45 -69 -45 -80 0 -22 48 -102 62
-102 12 0 10 -38 -3 -46 -7 -4 -10 -41 -8 -107 3 -85 2 -101 -13 -111 -9 -5
-20 -7 -24 -3 -15 15 -16 192 0 241 8 27 10 44 4 38 -6 -6 -19 -39 -28 -74
-17 -57 -19 -60 -20 -28 -2 35 -2 35 -12 -10 -12 -58 -3 -156 21 -245 12 -44
16 -74 10 -80 -5 -5 -9 -27 -9 -48 0 -34 -2 -38 -15 -27 -23 19 -57 78 -82
144 -21 55 -23 57 -18 21 8 -57 42 -155 65 -190 11 -16 20 -24 20 -17 0 27 29
9 44 -28 23 -57 21 -63 -14 -56 -39 7 -38 3 5 -23 30 -18 49 -52 28 -51 -17 1
-85 69 -79 79 4 5 -2 16 -12 23 -10 7 -21 21 -25 31 -6 15 -4 16 16 6 19 -10
20 -10 11 2 -88 111 -129 201 -158 341 -29 142 -16 312 34 449 l20 54 -4 -65
c-3 -36 -12 -101 -20 -145 -21 -110 -19 -335 3 -335 4 0 8 35 10 77 1 43 5 82
9 87 3 6 11 -22 18 -62 7 -42 27 -104 47 -145 37 -74 76 -131 77 -110 0 6 -5
15 -10 18 -20 12 -67 121 -83 190 -25 111 -27 131 -28 305 -1 171 15 279 60
412 l18 52 6 -38 c3 -21 2 -46 -2 -55 -10 -18 -47 -233 -56 -321 -9 -93 15
-20 31 95 17 121 21 135 40 135 16 0 18 27 6 62 -15 39 4 172 33 235 44 97 73
132 60 73z m-107 -95 c-10 -22 -48 -36 -48 -18 0 12 33 43 46 43 11 0 11 -5 2
-25z m364 -365 c-2 -16 -8 -30 -12 -30 -4 0 -22 -3 -39 -6 -40 -8 -42 12 -1
21 32 7 51 25 26 25 -32 0 -65 -20 -68 -41 -5 -38 -24 -33 -20 6 4 31 8 36 46
45 22 6 46 12 51 14 18 6 22 -2 17 -34z m171 20 c149 -29 282 -76 329 -117 28
-25 77 -28 254 -17 100 6 264 -9 251 -23 -3 -2 -56 0 -119 7 -78 7 -133 8
-178 1 -87 -14 -93 -15 -109 -25 -9 -6 -12 -5 -8 1 6 9 -6 14 -71 29 -8 1 -21
9 -31 18 -45 40 -221 98 -365 120 -54 8 -101 17 -104 20 -11 11 49 6 151 -14z
m-95 -22 c-3 -7 -13 -13 -23 -13 -10 0 -20 6 -22 13 -3 7 5 12 22 12 17 0 25
-5 23 -12z m141 -24 c17 -4 31 -11 31 -15 0 -5 -11 -7 -24 -3 -14 3 -37 -1
-55 -10 -28 -15 -31 -21 -30 -59 l1 -42 13 30 14 30 1 -33 c1 -98 114 -156
183 -95 15 14 18 14 15 3 -2 -8 4 -15 12 -15 17 0 25 43 16 80 -3 13 -18 37
-32 54 -29 35 -18 39 35 13 25 -12 38 -28 48 -57 11 -36 12 -37 8 -7 -5 32 11
45 21 17 9 -23 -3 -57 -33 -97 -50 -65 -99 -73 -221 -36 -95 28 -127 57 -137
125 -7 52 -1 87 17 111 11 13 66 16 117 6z m-191 -26 c5 -7 10 -32 10 -56 1
-93 38 -145 127 -180 72 -28 183 -44 227 -32 33 10 119 88 129 119 7 20 73 -1
78 -25 12 -63 44 -125 73 -140 33 -17 146 -22 187 -9 l23 7 -23 -31 c-32 -43
-112 -96 -184 -122 -84 -31 -316 -39 -400 -14 -31 9 -60 14 -63 11 -3 -3 24
-19 59 -36 65 -30 181 -53 219 -43 27 7 26 -10 -9 -79 -33 -70 -24 -75 19 -12
18 25 34 43 37 41 9 -10 -47 -112 -85 -156 -46 -53 -51 -52 -121 41 -28 36
-76 88 -107 115 -32 26 -72 62 -90 79 -18 17 -35 29 -38 27 -3 -3 -20 4 -39
16 -26 16 -34 27 -30 41 3 11 8 20 12 20 4 0 35 -23 69 -50 58 -46 62 -48 47
-21 -19 39 -19 40 8 35 12 -3 -15 14 -60 38 -83 44 -172 109 -192 141 -11 17
-11 17 16 0 19 -12 11 1 -26 42 -78 87 -81 95 -40 149 20 27 42 46 54 46 11 0
36 11 55 25 41 28 44 29 58 13z m307 -54 c33 -43 9 -84 -49 -84 -33 0 -56 25
-56 61 0 18 -4 28 -10 24 -18 -11 -10 -56 15 -80 26 -27 63 -32 97 -14 11 6
22 8 25 6 3 -3 -9 -13 -27 -22 -41 -21 -82 -12 -115 27 -28 33 -32 64 -11 94
13 18 21 20 65 14 33 -4 56 -13 66 -26z m495 -64 c0 -11 -7 -37 -15 -57 -18
-43 -13 -56 7 -19 l14 26 19 -56 c24 -70 17 -76 -82 -72 -83 4 -111 22 -118
76 -4 31 -4 31 16 11 23 -23 37 -24 69 -3 l25 16 -25 -22 c-18 -16 -32 -20
-54 -16 -23 5 -28 4 -19 -5 20 -20 64 -13 90 14 19 18 27 39 31 76 4 41 8 51
23 51 12 0 19 -7 19 -20z m-80 -35 c0 -17 -5 -36 -12 -43 -19 -19 -56 -14 -68
8 -16 30 13 69 51 68 26 -1 29 -5 29 -33z m189 13 c0 -7 -9 -35 -19 -63 -14
-41 -19 -46 -25 -30 -3 11 -12 37 -20 57 -7 20 -10 39 -7 42 11 12 72 6 71 -6z
m-969 -237 c50 -43 48 -65 -3 -37 -48 28 -86 67 -80 82 6 17 22 9 83 -45z
m770 -116 c0 -3 -20 -27 -45 -54 -24 -26 -51 -60 -59 -76 -23 -45 -127 -165
-142 -165 -19 0 -18 5 17 53 96 132 229 273 229 242z m-792 -124 c130 -74 175
-105 166 -114 -3 -3 13 -22 36 -43 64 -58 34 -64 -41 -9 -35 26 -129 79 -208
118 -113 55 -145 67 -151 56 -11 -17 -17 -11 -24 21 -5 20 1 30 30 52 35 27
37 27 53 9 9 -11 71 -51 139 -90z m682 82 c-1 -5 -16 -26 -36 -48 -33 -38 -35
-39 -46 -20 -16 27 -18 58 -4 67 15 10 86 10 86 1z m120 -33 c0 -22 -34 -77
-79 -125 -25 -28 -55 -64 -67 -80 -14 -20 -25 -27 -38 -22 -15 6 -13 13 19 54
20 27 61 74 91 105 30 32 54 62 54 68 0 5 5 10 10 10 6 0 10 -5 10 -10z m13
-93 c-29 -58 -124 -166 -139 -160 -19 7 -18 16 9 57 13 22 33 39 49 42 17 4
36 20 48 39 26 42 25 53 -1 29 -20 -18 -20 -16 2 18 20 31 26 35 37 24 12 -11
11 -19 -5 -49z m-1013 -11 c-15 -40 -12 -86 9 -133 11 -23 17 -51 14 -62 -5
-19 6 -78 23 -127 6 -17 5 -17 -8 -4 -22 21 -38 76 -38 125 0 23 -7 57 -16 74
-19 37 -15 120 6 146 18 22 23 13 10 -19z m186 -42 c92 -46 150 -87 90 -64
-15 5 -42 10 -59 10 -45 0 -20 -14 64 -36 72 -19 133 -53 93 -54 -11 0 -28 -6
-37 -12 -14 -11 3 -13 95 -14 134 -2 148 -11 148 -98 0 -63 -13 -82 -65 -100
-49 -17 -55 -13 -24 15 19 17 14 15 -25 -6 -33 -19 -69 -29 -112 -33 -85 -6
-138 20 -204 101 -27 34 -48 63 -46 65 3 2 17 -5 33 -14 25 -17 24 -14 -10 25
-51 57 -97 155 -97 207 0 22 3 44 7 47 16 16 62 4 149 -39z m882 -39 c-1 -5 7
-28 16 -49 10 -22 19 -49 21 -60 1 -12 7 -34 14 -49 16 -41 14 -58 -9 -64 -11
-3 -20 -11 -20 -18 0 -16 -60 -45 -93 -45 -23 0 -27 5 -33 45 -3 25 -19 63
-36 86 -16 22 -27 43 -25 45 2 3 32 6 66 7 33 1 61 5 61 9 0 11 -67 21 -96 14
-23 -6 -18 3 37 63 l64 69 17 -21 c10 -12 17 -26 16 -32z m-349 -85 c43 -22
92 -72 115 -117 21 -43 32 -118 17 -127 -21 -13 -48 13 -54 51 -3 21 -9 47
-13 58 -7 18 -6 19 11 5 17 -14 17 -14 2 15 -21 40 -86 101 -117 110 -22 6
-21 4 6 -13 52 -33 94 -114 94 -181 0 -19 -4 -21 -22 -15 -13 3 -23 7 -24 8 0
0 -9 24 -19 51 -10 28 -36 69 -60 93 -57 57 -37 54 25 -4 57 -53 69 -51 14 3
-20 19 -52 41 -70 49 -37 16 -78 19 -70 5 8 -12 -41 -18 -79 -10 l-30 6 30 13
c17 7 41 16 55 21 37 13 147 1 189 -21z m111 5 c37 -19 66 -54 89 -105 22 -51
38 -140 25 -140 -5 0 -19 -3 -31 -6 -19 -5 -23 -2 -23 18 0 80 -61 180 -137
225 -24 14 -43 27 -43 30 0 8 94 -9 120 -22z m-206 -66 c42 -33 59 -75 51
-126 -8 -57 -32 -80 -90 -88 -37 -6 -43 -10 -34 -21 9 -11 5 -14 -22 -13 -19
0 -52 3 -74 8 -38 6 -39 8 -18 19 12 7 40 12 62 12 56 0 100 40 108 97 7 52
-2 88 -27 113 -19 19 -19 20 -1 20 10 0 30 -9 45 -21z m-538 -36 c3 -10 13
-35 21 -56 19 -44 14 -54 -16 -30 -23 19 -41 103 -21 103 6 0 13 -8 16 -17z
m620 -119 c-3 -8 0 -14 7 -14 30 0 86 -22 91 -36 3 -8 2 -13 -3 -9 -5 3 -11 0
-13 -7 -5 -14 -138 -25 -138 -11 0 6 9 18 20 28 11 10 20 31 20 47 0 18 4 27
11 23 6 -4 8 -13 5 -21z"/>
<path d="M1433 1783 c42 -43 84 -87 92 -98 15 -20 15 -20 8 0 -13 41 -64 104
-112 139 -27 20 -52 36 -57 36 -5 0 26 -35 69 -77z"/>
<path d="M1598 1766 c9 -25 19 -43 23 -40 9 5 42 -41 62 -86 11 -25 16 -29 16
-15 1 41 -83 185 -109 185 -4 0 0 -20 8 -44z"/>
<path d="M1453 1671 c21 -29 37 -58 37 -64 0 -6 3 -8 6 -5 8 9 -31 80 -56 103
-16 14 -11 3 13 -34z"/>
<path d="M1415 1673 c10 -14 26 -41 37 -60 11 -18 22 -33 24 -33 8 0 -11 37
-39 78 -33 46 -50 58 -22 15z"/>
<path d="M671 1902 c-17 -89 -25 -222 -13 -202 5 8 13 42 17 76 9 85 19 97 49
59 60 -75 63 -74 21 5 -24 47 -45 93 -45 102 0 9 -4 19 -8 22 -4 2 -14 -26
-21 -62z"/>
<path d="M939 1496 c-2 -2 -19 -6 -38 -8 -21 -3 -40 -13 -49 -26 l-14 -21 54
20 c29 10 60 19 70 19 9 0 20 5 23 10 6 9 -37 15 -46 6z"/>
<path d="M917 1432 c-28 -17 -31 -33 -6 -40 8 -3 11 -1 6 3 -4 5 3 19 15 32
25 27 23 28 -15 5z"/>
<path d="M845 1410 c-10 -16 161 -186 243 -242 66 -45 149 -84 159 -75 2 2
-19 13 -46 25 -85 35 -183 116 -298 246 -18 20 -33 41 -33 46 0 13 -17 13 -25
0z"/>
<path d="M1550 1291 c0 -5 -18 -11 -40 -15 -46 -7 -48 -13 -19 -51 18 -22 20
-29 8 -36 -30 -19 -80 -10 -109 20 -34 34 -45 30 -25 -9 20 -38 68 -57 108
-42 25 10 34 9 47 -3 30 -27 79 -14 101 27 12 22 12 22 -14 5 -27 -18 -68 -23
-81 -10 -4 4 8 20 26 34 30 25 32 29 17 46 -9 10 -14 24 -12 31 3 6 2 12 -1
12 -3 0 -6 -4 -6 -9z m3 -38 c4 -3 2 -12 -4 -19 -8 -10 -15 -11 -30 -1 -10 6
-19 15 -19 19 0 10 44 11 53 1z"/>
<path d="M1443 1096 c5 -15 37 -20 49 -8 6 6 -1 11 -22 14 -19 3 -29 1 -27 -6z"/>
<path d="M1245 1481 c-8 -15 3 -31 21 -31 9 0 14 7 12 17 -4 20 -24 28 -33 14z"/>
<path d="M746 993 c-17 -17 0 -33 66 -62 74 -33 100 -33 58 -1 -41 32 -117 70
-124 63z"/>
<path d="M771 820 c-1 -26 48 -122 91 -180 59 -78 95 -108 156 -126 45 -13 65
-14 145 -3 50 7 99 18 107 26 12 11 9 11 -16 4 -17 -5 -55 -10 -85 -11 -150
-7 -173 -1 -245 62 -44 39 -112 137 -135 197 -10 26 -18 39 -18 31z"/>
<path d="M1744 659 c22 -5 46 -15 54 -22 13 -11 14 -9 1 11 -11 17 -23 22 -54
21 l-40 -1 39 -9z"/>
<path d="M1145 2257 l30 -36 95 0 c125 -1 203 -15 328 -56 l103 -35 30 22 c16
12 26 25 22 29 -13 11 -133 56 -213 80 -60 17 -110 22 -250 26 l-174 5 29 -35z"/>
<path d="M1278 2065 c35 -72 57 -73 93 -5 15 27 24 52 21 55 -3 3 -36 5 -73 5
l-67 0 26 -55z m72 19 c0 -12 -21 -44 -29 -44 -4 0 -13 11 -19 25 -11 24 -10
25 18 25 17 0 30 -3 30 -6z"/>
<path d="M1436 2054 c-31 -56 -31 -54 -6 -54 12 0 25 13 36 35 9 20 20 38 25
41 14 8 10 -19 -6 -40 -18 -24 -19 -46 -2 -46 12 0 73 88 66 94 -2 2 -23 7
-45 11 -41 6 -42 6 -68 -41z"/>
<path d="M1582 2015 c-36 -52 -37 -55 -18 -55 7 0 19 13 26 30 7 16 18 35 26
41 8 6 14 15 14 20 0 20 -18 6 -48 -36z"/>
<path d="M1940 1684 c-36 -42 -65 -80 -64 -85 1 -5 2 -16 3 -24 0 -9 11 -19
23 -24 20 -7 32 1 88 62 36 39 65 73 65 76 0 4 -11 21 -25 39 l-25 32 -65 -76z
m74 9 c6 -15 -10 -38 -70 -100 -20 -20 -51 -17 -43 5 5 14 93 111 100 112 4 0
10 -7 13 -17z"/>
<path d="M2013 1609 c-73 -82 -67 -99 7 -19 33 36 60 68 60 73 0 16 -18 2 -67
-54z"/>
<path d="M2075 1450 c-27 -27 -46 -52 -43 -56 9 -8 107 77 108 94 0 21 -13 13
-65 -38z"/>
<path d="M2105 1299 c-33 -28 -98 -83 -145 -122 -167 -142 -190 -165 -176
-176 10 -8 25 -2 59 24 45 34 46 35 60 15 14 -20 16 -19 78 24 35 25 94 66
132 92 l67 46 0 74 c0 41 -3 74 -7 74 -5 0 -35 -23 -68 -51z m49 -35 c-1 -10
-2 -28 -2 -39 -1 -12 -19 -31 -42 -45 -22 -14 -40 -28 -40 -32 0 -5 -5 -8 -10
-8 -6 0 -16 -5 -23 -10 -66 -56 -105 -79 -125 -73 -13 3 -22 12 -20 20 4 18
240 214 253 210 5 -2 9 -12 9 -23z"/>
<path d="M2156 1155 c-3 -8 -3 -22 1 -31 4 -10 -8 -29 -32 -54 -26 -27 -32
-37 -19 -34 40 11 61 38 68 87 5 45 -5 64 -18 32z"/>
<path d="M2089 990 c-37 -25 -81 -57 -98 -72 -17 -15 -54 -39 -81 -54 -28 -15
-50 -31 -50 -36 0 -15 21 -8 63 20 23 16 81 52 130 81 79 48 114 80 105 99 -2
4 -33 -13 -69 -38z"/>
<path d="M1998 823 c-77 -46 -108 -71 -108 -84 0 -28 16 -23 104 29 52 31 87
60 103 85 13 20 20 37 16 36 -5 0 -56 -30 -115 -66z"/>
<path d="M449 751 c-33 -27 -18 -36 20 -13 17 10 28 22 24 25 -10 11 -19 8
-44 -12z"/>
<path d="M2040 760 c0 -5 7 -10 15 -10 9 0 29 -7 45 -15 33 -17 40 -7 12 18
-20 18 -72 23 -72 7z"/>
</g>
</svg>
